<mxfile host="Electron" modified="2024-06-22T10:10:20.362Z" agent="Mozilla/5.0 (X11; Linux x86_64) AppleWebKit/537.36 (KHTML, like Gecko) draw.io/24.2.5 Chrome/122.0.6261.156 Electron/29.3.3 Safari/537.36" etag="nxK5uB1duil0LzlpZEkq" version="24.2.5" type="device">
  <diagram name="Page-1" id="xcEkqkAStGt948F2OmXl">
    <mxGraphModel dx="643" dy="1067" grid="1" gridSize="10" guides="1" tooltips="1" connect="1" arrows="1" fold="1" page="1" pageScale="1" pageWidth="850" pageHeight="1100" math="1" shadow="0">
      <root>
        <mxCell id="0" />
        <mxCell id="1" parent="0" />
        <mxCell id="MTZFBpwM9Xv1V1m-rhOq-3" value="" style="verticalLabelPosition=bottom;verticalAlign=top;html=1;shape=mxgraph.basic.orthogonal_triangle;flipH=1;fillColor=#f8cecc;strokeColor=#b85450;" parent="1" vertex="1">
          <mxGeometry x="200" y="302" width="120" height="120" as="geometry" />
        </mxCell>
        <mxCell id="90Iw-HYkFCQXR-lB0Bmn-2" value="" style="endArrow=classic;html=1;rounded=0;" parent="1" edge="1">
          <mxGeometry width="50" height="50" relative="1" as="geometry">
            <mxPoint x="160" y="440" as="sourcePoint" />
            <mxPoint x="480" y="440" as="targetPoint" />
          </mxGeometry>
        </mxCell>
        <mxCell id="90Iw-HYkFCQXR-lB0Bmn-3" value="" style="endArrow=classic;html=1;rounded=0;" parent="1" edge="1">
          <mxGeometry width="50" height="50" relative="1" as="geometry">
            <mxPoint x="200" y="480" as="sourcePoint" />
            <mxPoint x="200" y="180" as="targetPoint" />
          </mxGeometry>
        </mxCell>
        <mxCell id="90Iw-HYkFCQXR-lB0Bmn-4" value="`x`" style="text;html=1;align=center;verticalAlign=middle;whiteSpace=wrap;rounded=0;fontSize=16;" parent="1" vertex="1">
          <mxGeometry x="470" y="423" width="60" height="30" as="geometry" />
        </mxCell>
        <mxCell id="90Iw-HYkFCQXR-lB0Bmn-5" value="`y&#39; := y - \lfloor\frac {b} {m} \rfloor`" style="text;html=1;align=center;verticalAlign=middle;whiteSpace=wrap;rounded=0;fontSize=16;" parent="1" vertex="1">
          <mxGeometry x="180" y="130" width="140" height="50" as="geometry" />
        </mxCell>
        <mxCell id="90Iw-HYkFCQXR-lB0Bmn-9" value="" style="endArrow=none;html=1;rounded=0;" parent="1" edge="1">
          <mxGeometry width="50" height="50" relative="1" as="geometry">
            <mxPoint x="200" y="422" as="sourcePoint" />
            <mxPoint x="320" y="262" as="targetPoint" />
          </mxGeometry>
        </mxCell>
        <mxCell id="MTZFBpwM9Xv1V1m-rhOq-1" value="" style="endArrow=none;html=1;rounded=0;fontColor=#FFD966;fillColor=#dae8fc;strokeColor=#6c8ebf;" parent="1" source="MTZFBpwM9Xv1V1m-rhOq-3" edge="1">
          <mxGeometry width="50" height="50" relative="1" as="geometry">
            <mxPoint x="200" y="422" as="sourcePoint" />
            <mxPoint x="319" y="342" as="targetPoint" />
            <Array as="points">
              <mxPoint x="200" y="422" />
            </Array>
          </mxGeometry>
        </mxCell>
        <mxCell id="MTZFBpwM9Xv1V1m-rhOq-2" value="`y&#39; = \frac {a%m} {m} x&amp;nbsp;+ \frac {b % m} {m}``" style="text;html=1;align=center;verticalAlign=middle;whiteSpace=wrap;rounded=0;fontSize=16;fillColor=none;strokeColor=none;fontColor=#7EA6E0;" parent="1" vertex="1">
          <mxGeometry x="340" y="333" width="170" height="30" as="geometry" />
        </mxCell>
        <mxCell id="MTZFBpwM9Xv1V1m-rhOq-4" value="" style="endArrow=none;html=1;rounded=0;" parent="1" target="MTZFBpwM9Xv1V1m-rhOq-3" edge="1">
          <mxGeometry width="50" height="50" relative="1" as="geometry">
            <mxPoint x="200" y="422" as="sourcePoint" />
            <mxPoint x="320" y="362" as="targetPoint" />
          </mxGeometry>
        </mxCell>
        <mxCell id="MTZFBpwM9Xv1V1m-rhOq-6" value="`y&#39; = \lfloor \frac {a} {m} \rfloor x + \frac {b % m} {m}`" style="text;html=1;align=center;verticalAlign=middle;whiteSpace=wrap;rounded=0;fontSize=16;fontColor=#EA6B66;" parent="1" vertex="1">
          <mxGeometry x="336" y="272" width="170" height="30" as="geometry" />
        </mxCell>
        <mxCell id="d5rSLgrOkH3s8ws7rRvm-1" value="" style="rounded=0;whiteSpace=wrap;html=1;fillColor=#d5e8d4;strokeColor=#82b366;" parent="1" vertex="1">
          <mxGeometry x="200" y="420" width="120" height="20" as="geometry" />
        </mxCell>
        <mxCell id="d5rSLgrOkH3s8ws7rRvm-3" value="`y&#39; = \frac {a} {m} x + \frac {b % m} {m}`" style="text;html=1;align=center;verticalAlign=middle;whiteSpace=wrap;rounded=0;fontSize=16;" parent="1" vertex="1">
          <mxGeometry x="324" y="220" width="170" height="30" as="geometry" />
        </mxCell>
        <mxCell id="d5rSLgrOkH3s8ws7rRvm-6" value="`n`" style="text;html=1;align=center;verticalAlign=middle;whiteSpace=wrap;rounded=0;fontSize=16;" parent="1" vertex="1">
          <mxGeometry x="296" y="440" width="50" height="30" as="geometry" />
        </mxCell>
        <mxCell id="d5rSLgrOkH3s8ws7rRvm-12" value="`y&#39; = \lfloor \frac {b%m} {m} \rfloor`" style="text;html=1;align=center;verticalAlign=middle;whiteSpace=wrap;rounded=0;fontSize=16;fontColor=#67AB9F;fontStyle=0" parent="1" vertex="1">
          <mxGeometry x="305" y="399" width="170" height="30" as="geometry" />
        </mxCell>
        <mxCell id="afx1F0TE5T15JeL0Utzr-1" value="" style="endArrow=classic;html=1;rounded=0;flowAnimation=0;anchorPointDirection=1;strokeColor=#d79b00;fillColor=#ffe6cc;" parent="1" edge="1">
          <mxGeometry width="50" height="50" relative="1" as="geometry">
            <mxPoint x="319" y="200" as="sourcePoint" />
            <mxPoint x="320" y="520" as="targetPoint" />
          </mxGeometry>
        </mxCell>
        <mxCell id="afx1F0TE5T15JeL0Utzr-2" value="" style="endArrow=classic;html=1;rounded=0;flowAnimation=0;anchorPointDirection=1;strokeColor=#d79b00;fillColor=#ffe6cc;" parent="1" edge="1">
          <mxGeometry width="50" height="50" relative="1" as="geometry">
            <mxPoint x="361" y="360" as="sourcePoint" />
            <mxPoint x="121" y="360" as="targetPoint" />
          </mxGeometry>
        </mxCell>
        <mxCell id="afx1F0TE5T15JeL0Utzr-3" value="`x&#39;&#39;`" style="text;html=1;align=center;verticalAlign=middle;whiteSpace=wrap;rounded=0;fontSize=16;fontColor=#FFB570;shadow=1;" parent="1" vertex="1">
          <mxGeometry x="291" y="520" width="60" height="30" as="geometry" />
        </mxCell>
        <mxCell id="afx1F0TE5T15JeL0Utzr-4" value="`y&#39;&#39;`" style="text;html=1;align=center;verticalAlign=middle;whiteSpace=wrap;rounded=0;fontSize=16;fontColor=#FFB570;shadow=1;" parent="1" vertex="1">
          <mxGeometry x="70" y="343" width="60" height="30" as="geometry" />
        </mxCell>
        <mxCell id="afx1F0TE5T15JeL0Utzr-5" value="" style="endArrow=none;html=1;rounded=0;dashed=1;strokeColor=#7EA6E0;" parent="1" edge="1">
          <mxGeometry width="50" height="50" relative="1" as="geometry">
            <mxPoint x="173.0000000000001" y="440" as="sourcePoint" />
            <mxPoint x="200" y="422" as="targetPoint" />
            <Array as="points">
              <mxPoint x="173" y="440" />
            </Array>
          </mxGeometry>
        </mxCell>
      </root>
    </mxGraphModel>
  </diagram>
</mxfile>
